<?xml version="1.0" encoding="UTF-8"?>
<svg width="300" height="200" viewBox="0 0 300 200" fill="none" xmlns="http://www.w3.org/2000/svg">
  <rect width="300" height="200" fill="#f5f5f5"/>
  
  <!-- Title -->
  <text x="150" y="25" font-family="Arial" font-size="15" font-weight="bold" text-anchor="middle" fill="#333">Conversion Assistée par IA</text>
  
  <!-- Input Node -->
  <rect x="20" y="60" width="60" height="40" rx="5" fill="#E74C3C" stroke="#C0392B" stroke-width="2"/>
  <text x="50" y="80" font-family="Arial" font-size="10" text-anchor="middle" fill="white">HL7 Input</text>
  
  <!-- Validation Node -->
  <rect x="20" y="120" width="60" height="40" rx="5" fill="#9B59B6" stroke="#8E44AD" stroke-width="2"/>
  <text x="50" y="140" font-family="Arial" font-size="10" text-anchor="middle" fill="white">Validation</text>
  
  <!-- AI Enhancement Node -->
  <rect x="120" y="90" width="60" height="40" rx="5" fill="#3498DB" stroke="#2980B9" stroke-width="2"/>
  <text x="150" y="105" font-family="Arial" font-size="9" text-anchor="middle" fill="white">Enrichir</text>
  <text x="150" y="115" font-family="Arial" font-size="9" text-anchor="middle" fill="white">avec IA</text>
  
  <!-- Conversion Node -->
  <rect x="220" y="90" width="60" height="40" rx="5" fill="#F39C12" stroke="#D35400" stroke-width="2"/>
  <text x="250" y="110" font-family="Arial" font-size="10" text-anchor="middle" fill="white">Convertir</text>
  
  <!-- AI Quality Check Node -->
  <rect x="220" y="150" width="60" height="40" rx="5" fill="#3498DB" stroke="#2980B9" stroke-width="2"/>
  <text x="250" y="165" font-family="Arial" font-size="9" text-anchor="middle" fill="white">Vérification</text>
  <text x="250" y="175" font-family="Arial" font-size="9" text-anchor="middle" fill="white">Qualité IA</text>
  
  <!-- Output Node -->
  <rect x="120" y="150" width="60" height="40" rx="5" fill="#27AE60" stroke="#2ECC71" stroke-width="2"/>
  <text x="150" y="170" font-family="Arial" font-size="10" text-anchor="middle" fill="white">Sortie FHIR</text>
  
  <!-- AI Brain Symbol -->
  <ellipse cx="150" cy="50" rx="15" ry="12" fill="#3498DB" stroke="#2980B9" stroke-width="1"/>
  <path d="M145,52 Q150,60 155,52" stroke="#2980B9" stroke-width="1" fill="none"/>
  <circle cx="146" cy="48" r="1.5" fill="#fff"/>
  <circle cx="154" cy="48" r="1.5" fill="#fff"/>
  <path d="M140,50 Q150,65 160,50" stroke="#2980B9" stroke-width="1" fill="none"/>
  
  <!-- Connections -->
  <line x1="50" y1="100" x2="50" y2="120" stroke="#333" stroke-width="2"/>
  <line x1="80" y1="80" x2="120" y2="90" stroke="#333" stroke-width="2"/>
  <line x1="80" y1="140" x2="120" y2="110" stroke="#333" stroke-width="2"/>
  <line x1="180" y1="110" x2="220" y2="110" stroke="#333" stroke-width="2"/>
  <line x1="180" y1="90" x2="220" y2="90" stroke="#333" stroke-width="2"/>
  <line x1="250" y1="130" x2="250" y2="150" stroke="#333" stroke-width="2"/>
  <line x1="180" y1="170" x2="220" y2="170" stroke="#333" stroke-width="2"/>
  
  <!-- Arrows -->
  <polygon points="46,118 50,125 54,118" fill="#333"/>
  <polygon points="118,88 125,90 120,95" fill="#333"/>
  <polygon points="118,108 125,110 120,105" fill="#333"/>
  <polygon points="218,88 225,90 220,95" fill="#333"/>
  <polygon points="218,108 225,110 220,105" fill="#333"/>
  <polygon points="246,148 250,155 254,148" fill="#333"/>
  <polygon points="218,168 225,170 220,175" fill="#333"/>
  
  <!-- AI Enhancement Lines -->
  <line x1="150" y1="62" x2="150" y2="90" stroke="#3498DB" stroke-width="1" stroke-dasharray="2"/>
  <line x1="165" y1="50" x2="220" y2="50" stroke="#3498DB" stroke-width="1" stroke-dasharray="2"/>
  <line x1="220" y1="50" x2="250" y2="50" stroke="#3498DB" stroke-width="1" stroke-dasharray="2"/>
  <line x1="250" y1="50" x2="250" y2="90" stroke="#3498DB" stroke-width="1" stroke-dasharray="2"/>
</svg>