<?xml version="1.0" encoding="UTF-8"?>
<svg width="300" height="200" viewBox="0 0 300 200" fill="none" xmlns="http://www.w3.org/2000/svg">
  <rect width="300" height="200" fill="#f5f5f5"/>
  
  <!-- Title -->
  <text x="150" y="25" font-family="Arial" font-size="16" font-weight="bold" text-anchor="middle" fill="#333">Traitement par Lots</text>
  
  <!-- File Input Node -->
  <rect x="20" y="60" width="60" height="40" rx="5" fill="#3498DB" stroke="#2980B9" stroke-width="2"/>
  <text x="50" y="76" font-family="Arial" font-size="10" text-anchor="middle" fill="white">Entrée</text>
  <text x="50" y="86" font-family="Arial" font-size="10" text-anchor="middle" fill="white">Fichier</text>
  
  <!-- Batch Node -->
  <rect x="120" y="60" width="60" height="40" rx="5" fill="#9B59B6" stroke="#8E44AD" stroke-width="2"/>
  <text x="150" y="76" font-family="Arial" font-size="10" text-anchor="middle" fill="white">Processeur</text>
  <text x="150" y="86" font-family="Arial" font-size="10" text-anchor="middle" fill="white">par lots</text>
  
  <!-- Conversion Node -->
  <rect x="120" y="120" width="60" height="40" rx="5" fill="#F39C12" stroke="#D35400" stroke-width="2"/>
  <text x="150" y="140" font-family="Arial" font-size="10" text-anchor="middle" fill="white">Conversion</text>
  
  <!-- Output Node -->
  <rect x="120" y="180" width="60" height="40" rx="5" fill="#27AE60" stroke="#2ECC71" stroke-width="2"/>
  <text x="150" y="196" font-family="Arial" font-size="10" text-anchor="middle" fill="white">Sortie</text>
  <text x="150" y="206" font-family="Arial" font-size="10" text-anchor="middle" fill="white">Fichier</text>
  
  <!-- Report Node -->
  <rect x="220" y="120" width="60" height="40" rx="5" fill="#95A5A6" stroke="#7F8C8D" stroke-width="2"/>
  <text x="250" y="136" font-family="Arial" font-size="10" text-anchor="middle" fill="white">Rapport</text>
  <text x="250" y="146" font-family="Arial" font-size="10" text-anchor="middle" fill="white">de traitement</text>
  
  <!-- Connections -->
  <line x1="80" y1="80" x2="120" y2="80" stroke="#333" stroke-width="2"/>
  <line x1="150" y1="100" x2="150" y2="120" stroke="#333" stroke-width="2"/>
  <line x1="150" y1="160" x2="150" y2="180" stroke="#333" stroke-width="2"/>
  <line x1="180" y1="140" x2="220" y2="140" stroke="#333" stroke-width="2"/>
  <line x1="150" y1="80" x2="180" y2="80" stroke="#333" stroke-width="2"/>
  <line x1="180" y1="80" x2="220" y2="80" stroke="#333" stroke-width="2"/>
  <line x1="220" y1="80" x2="250" y2="80" stroke="#333" stroke-width="2"/>
  <line x1="250" y1="80" x2="250" y2="120" stroke="#333" stroke-width="2"/>
  
  <!-- Arrows -->
  <polygon points="118,76 125,80 118,84" fill="#333"/>
  <polygon points="146,118 150,125 154,118" fill="#333"/>
  <polygon points="146,178 150,185 154,178" fill="#333"/>
  <polygon points="218,136 225,140 218,144" fill="#333"/>
  <polygon points="246,118 250,125 254,118" fill="#333"/>
  
  <!-- File Symbols -->
  <rect x="35" y="45" width="12" height="15" fill="#fff" stroke="#333" stroke-width="1"/>
  <rect x="38" y="42" width="12" height="15" fill="#fff" stroke="#333" stroke-width="1"/>
  <rect x="41" y="39" width="12" height="15" fill="#fff" stroke="#333" stroke-width="1"/>
  
  <rect x="135" y="165" width="12" height="15" fill="#fff" stroke="#333" stroke-width="1"/>
  <rect x="138" y="162" width="12" height="15" fill="#fff" stroke="#333" stroke-width="1"/>
  <rect x="141" y="159" width="12" height="15" fill="#fff" stroke="#333" stroke-width="1"/>
</svg>