<svg width="640" height="320" viewBox="0 0 640 320" fill="none" xmlns="http://www.w3.org/2000/svg">
  <rect width="640" height="320" fill="#F8F9FA"/>
  <path d="M320 140L420 40H520V140L420 240H320L220 140H320Z" fill="url(#paint0_linear)" stroke="#FF6B6B" stroke-width="2"/>
  <circle cx="320" cy="140" r="10" fill="#FF9F43"/>
  <circle cx="420" cy="40" r="10" fill="#FF9F43"/>
  <circle cx="520" cy="140" r="10" fill="#FF9F43"/>
  <circle cx="420" cy="240" r="10" fill="#FF9F43"/>
  <circle cx="220" cy="140" r="10" fill="#FF9F43"/>
  <path d="M120 140H220" stroke="#FF6B6B" stroke-width="3"/>
  <path d="M320 240L320 140" stroke="#FF6B6B" stroke-width="3"/>
  <path d="M420 240L420 290" stroke="#FF6B6B" stroke-width="3"/>
  <path d="M520 140L570 140" stroke="#FF6B6B" stroke-width="3"/>
  <rect x="70" y="120" width="50" height="40" rx="5" fill="white" stroke="#FF6B6B" stroke-width="2"/>
  <rect x="80" y="135" width="30" height="10" rx="2" fill="#FF9F43"/>
  <rect x="300" y="260" width="40" height="50" rx="5" fill="white" stroke="#FF6B6B" stroke-width="2"/>
  <rect x="315" y="270" width="10" height="30" rx="2" fill="#FF9F43"/>
  <rect x="400" y="290" width="40" height="50" rx="5" fill="white" stroke="#FF6B6B" stroke-width="2"/>
  <rect x="415" y="300" width="10" height="30" rx="2" fill="#FF9F43"/>
  <rect x="570" y="120" width="50" height="40" rx="5" fill="white" stroke="#FF6B6B" stroke-width="2"/>
  <rect x="580" y="135" width="30" height="10" rx="2" fill="#FF9F43"/>
  <defs>
    <linearGradient id="paint0_linear" x1="270" y1="90" x2="470" y2="190" gradientUnits="userSpaceOnUse">
      <stop stop-color="#FF6B6B" stop-opacity="0.2"/>
      <stop offset="1" stop-color="#FF9F43" stop-opacity="0.2"/>
    </linearGradient>
  </defs>
</svg>