<?xml version="1.0" encoding="UTF-8"?>
<svg width="400" height="300" viewBox="0 0 400 300" xmlns="http://www.w3.org/2000/svg">
  <defs>
    <linearGradient id="grad" x1="0%" y1="0%" x2="100%" y2="100%">
      <stop offset="0%" stop-color="#ff6b6b" />
      <stop offset="100%" stop-color="#ff9f43" />
    </linearGradient>
    <filter id="shadow" x="-5%" y="-5%" width="110%" height="110%">
      <feDropShadow dx="2" dy="3" stdDeviation="4" flood-opacity="0.3" />
    </filter>
  </defs>
  
  <!-- Fond avec dégradé -->
  <rect width="400" height="300" rx="10" fill="#f5f5f5" />
  
  <!-- Grille de fond -->
  <g stroke="#e0e0e0" stroke-width="1">
    <path d="M 50 0 L 50 300" />
    <path d="M 100 0 L 100 300" />
    <path d="M 150 0 L 150 300" />
    <path d="M 200 0 L 200 300" />
    <path d="M 250 0 L 250 300" />
    <path d="M 300 0 L 300 300" />
    <path d="M 350 0 L 350 300" />
    
    <path d="M 0 50 L 400 50" />
    <path d="M 0 100 L 400 100" />
    <path d="M 0 150 L 400 150" />
    <path d="M 0 200 L 400 200" />
    <path d="M 0 250 L 400 250" />
  </g>
  
  <!-- Représentation simplifiée d'un workflow -->
  <!-- Nœud 1 -->
  <rect x="70" y="120" width="80" height="60" rx="8" fill="url(#grad)" filter="url(#shadow)" />
  <text x="110" y="155" font-family="Arial" font-size="11" text-anchor="middle" fill="white">Entrée</text>
  
  <!-- Nœud 2 -->
  <rect x="210" y="120" width="80" height="60" rx="8" fill="url(#grad)" filter="url(#shadow)" />
  <text x="250" y="155" font-family="Arial" font-size="11" text-anchor="middle" fill="white">Traitement</text>
  
  <!-- Nœud 3 -->
  <rect x="350" y="120" width="80" height="60" rx="8" transform="translate(-40, 0)" fill="url(#grad)" filter="url(#shadow)" />
  <text x="310" y="155" font-family="Arial" font-size="11" text-anchor="middle" fill="white">Sortie</text>
  
  <!-- Lignes de connexion -->
  <path d="M 150 150 L 210 150" stroke="#43a047" stroke-width="2" />
  <polygon points="208,146 215,150 208,154" fill="#43a047" />
  
  <path d="M 290 150 L 350 150" transform="translate(-40, 0)" stroke="#43a047" stroke-width="2" />
  <polygon points="308,146 315,150 308,154" transform="translate(2, 0)" fill="#43a047" />
  
  <!-- Texte du template -->
  <text x="200" y="240" font-family="Arial" font-size="16" font-weight="bold" text-anchor="middle" fill="#333">Template FHIRHub</text>
  <text x="200" y="260" font-family="Arial" font-size="12" text-anchor="middle" fill="#666">Workflow standardisé pour l'interopérabilité en santé</text>
</svg>