<svg xmlns="http://www.w3.org/2000/svg" viewBox="0 0 24 24" fill="none">
  <path d="M12 2C10.5982 4.28395 9 7 9 9C9 11 10 12 11 12C11.5 12 12 11.5 12 11C12 13 13.5 14 15 14C17 14 19 12 19 9C19 6.5 17.4018 4 16 2C14.4018 4 12 7 12 9C12 9.5 12.5 10 13 10C11 10 10 8 10 6.5C10 5 11.1982 3 12 2Z" fill="url(#paint0_linear)"/>
  <path d="M13.5 19.5C13.5 20.8807 12.3807 22 11 22C9.61929 22 8.5 20.8807 8.5 19.5C8.5 18.1193 9.5 17 11 16C12.5 17 13.5 18.1193 13.5 19.5Z" fill="url(#paint1_linear)"/>
  <defs>
    <linearGradient id="paint0_linear" x1="11.9444" y1="2" x2="11.9444" y2="14" gradientUnits="userSpaceOnUse">
      <stop stop-color="#E53E3E"/>
      <stop offset="1" stop-color="#FF5722"/>
    </linearGradient>
    <linearGradient id="paint1_linear" x1="11" y1="16" x2="11" y2="22" gradientUnits="userSpaceOnUse">
      <stop stop-color="#FF5722"/>
      <stop offset="1" stop-color="#E53E3E"/>
    </linearGradient>
  </defs>
</svg>