<?xml version="1.0" encoding="UTF-8"?>
<svg width="200" height="50" viewBox="0 0 200 50" xmlns="http://www.w3.org/2000/svg">
  <defs>
    <linearGradient id="gradient" x1="0%" y1="0%" x2="100%" y2="100%">
      <stop offset="0%" style="stop-color:#ff5e62;stop-opacity:1" />
      <stop offset="100%" style="stop-color:#ff9966;stop-opacity:1" />
    </linearGradient>
  </defs>
  <g fill="url(#gradient)">
    <path d="M20,10 L30,10 L30,40 L20,40 Z" />
    <path d="M35,10 L45,10 L45,25 L35,25 Z" />
    <path d="M35,30 L45,30 L45,40 L35,40 Z" />
    <path d="M50,10 L60,10 L60,40 L50,40 Z" />
    <path d="M65,10 L75,10 L75,40 L65,40 L65,30 L70,30 L70,20 L65,20 Z" />
    <path d="M80,10 L90,10 L90,40 L80,40 Z" />
    <path d="M95,10 L105,10 L105,25 L95,25 Z" />
    <path d="M95,30 L105,30 L105,40 L95,40 Z" />
    <path d="M110,10 L120,10 L120,20 L130,20 L130,10 L140,10 L140,40 L130,40 L130,30 L120,30 L120,40 L110,40 Z" />
    <path d="M145,10 L155,10 L155,40 L145,40 Z" />
    <path d="M160,10 L180,10 L180,20 L170,20 L170,40 L160,40 Z" />
  </g>
  <text x="100" y="47" font-family="Arial" font-size="7" text-anchor="middle" fill="#666">Conversion HL7 → FHIR</text>
</svg>